What is Hi10P ?
Hi10P is the advanced version of the normal x264. This gives more quality for the same size. 
You have the ability to watch Ultra Quality movies with the new Hi10P encodes.

Hi10P needs Updated, Advanced video players. 

i recommend VLC or Media Player Classic because it's pretty easy.
But, you can select any of your choice.(if problem to play then intsall k-lite codecs pack)


 
http://en.wikipedia.org/wiki/Gangs_of_Wasseypur_-_Part_2

[b]Source                                : DVD9[/b]
Format                                   : Matroska
Format version                           : Version 2
File size                                : 2.40 GiB
Duration                                 : 2h 39mn
Overall bit rate                         : 2 148 Kbps


Video
ID                                       : 1
Format                                   : AVC
Format/Info                              : Advanced Video Codec
Format profile                           : High 10@L4.1
Format settings, CABAC                   : Yes
Format settings, ReFrames                : 4 frames
Muxing mode                              : Header stripping
Codec ID                                 : V_MPEG4/ISO/AVC
Duration                                 : 2h 39mn
Bit rate                                 : 1 700 Kbps
Width                                    : 1 280 pixels
Height                                   : 544 pixels
Display aspect ratio                     : 2.35:1
Original display aspect ratio            : 2.35:1
Frame rate                               : 23.976 fps
Color space                              : YUV
Chroma subsampling                       : 4:2:0
Bit depth                                : 10 bits
Scan type                                : Progressive
Bits/(Pixel*Frame)                       : 0.102
Stream size                              : 1.85 GiB (77%)


Audio
ID                                       : 2
Format                                   : AC-3
Bit rate mode                            : Constant
Bit rate                                 : 448 Kbps
Channel(s)                               : 6 channels
Channel positions                        : Front: L C R, Side: L R, LFE
Sampling rate                            : 48.0 KHz
Bit depth                                : 16 bits
Compression mode                         : Lossy
Stream size                              : 513 MiB (21%)
Language                                 : Hindi
Default                                  : Yes
Forced                                   : No


 
http://www.shotpix.com/images/72768290412360753088.png 
http://www.shotpix.com/images/13026337919738211348.png 
http://www.shotpix.com/images/58507448501022962736.png 
http://www.shotpix.com/images/54550025689138970518.png 
http://www.shotpix.com/images/44893598061498397040.png 
http://www.shotpix.com/images/70098995196169827184.png 
http://www.shotpix.com/images/42523096249395749863.png 
http://www.shotpix.com/images/44276207920143204694.png 
http://www.shotpix.com/images/08220716273665387746.png 
http://www.shotpix.com/images/16866961869657879989.png


                               Check the sample First